<svg xmlns="http://www.w3.org/2000/svg" viewBox="0 0 1297.08 715.91"><title>Asset 7</title><g id="Layer_2" data-name="Layer 2"><g id="Layer_1-2" data-name="Layer 1"><path d="M703.65,311l17.9-7.84L1002.14,180.3l28.43-12.89-28.43-12.9L721.55,31.89,703.49,24l-55-24L593.59,24l-18.06,7.88L294.94,154.51l-28.43,12.9,28.43,12.89L575.53,303.16l17.9,7.84,55.11,24.11ZM886.37,167.41l-153,66.84,47.22-57.9,7.3-8.94-7.3-8.95-47.08-57.7Zm-237.83,76-62-76,62-76,62,76Zm-237.83-76,152.91-66.65-47.08,57.7-7.3,8.95,7.3,8.94,47.22,57.9Z"/><polygon points="5.06 393.86 0 393.86 0 398.92 0 592.18 0 597.25 5.06 597.25 106.97 597.25 112.04 597.25 112.04 592.18 112.04 570.8 112.04 565.74 106.97 565.74 33.1 565.74 33.1 501.81 106.97 501.81 112.04 501.81 112.04 496.74 112.04 475.36 112.04 470.29 106.97 470.29 33.1 470.29 33.1 424.98 106.97 424.98 112.04 424.98 112.04 419.91 112.04 398.92 112.04 393.86 106.97 393.86 5.06 393.86"/><path d="M289,504.91c15.31-1,27.41-5.48,36-13.5,9.87-9.19,14.88-22.58,14.88-39.81a69.35,69.35,0,0,0-5.15-27,49.24,49.24,0,0,0-14.88-20l0,0h0a47,47,0,0,0-17.8-8.37c-6.48-1.56-16.18-2.32-29.64-2.32H222V597.25h32.57V510.68l64.71,84.58,1.52,2H363L356.38,589Zm-34.5-81.52H267c20.36,0,29,3.46,32.62,6.36,4.95,3.94,7.47,11.38,7.47,22.11,0,9.81-2.4,16.6-7.12,20.19-3.53,2.69-12.12,5.9-33,5.9H254.53Z"/><polygon points="452.81 393.86 447.75 393.86 447.75 398.92 447.75 592.18 447.75 597.25 452.81 597.25 554.72 597.25 559.78 597.25 559.78 592.18 559.78 570.8 559.78 565.74 554.72 565.74 480.84 565.74 480.84 501.81 554.72 501.81 559.78 501.81 559.78 496.74 559.78 475.36 559.78 470.29 554.72 470.29 480.84 470.29 480.84 424.98 554.72 424.98 559.78 424.98 559.78 419.91 559.78 398.92 559.78 393.86 554.72 393.86 452.81 393.86"/><path d="M769,488.76a40.08,40.08,0,0,0,11-10.47c5.48-7.7,8.26-17.31,8.26-28.54A59.84,59.84,0,0,0,782.65,424a51.3,51.3,0,0,0-15.89-19.52l0,0,0,0a50.73,50.73,0,0,0-19.27-8.31c-7.15-1.54-17.75-2.29-32.42-2.29H669.71V597.25H715c19.56,0,33.21-1.14,41.74-3.48a50.56,50.56,0,0,0,22.41-12.63,58.55,58.55,0,0,0,12.89-19.81,64.38,64.38,0,0,0,4.59-24.06c0-14-3.71-25.9-11-35.26A44.65,44.65,0,0,0,769,488.76Zm-17.41,72.78,0,0a26.35,26.35,0,0,1-10.91,4.12c-5.09.91-13.69,1.38-25.58,1.38H702.27V506.69h19.5c8.17,0,14.19.37,17.9,1.09a28,28,0,0,1,9.06,3.34l.07,0,.06,0a24.14,24.14,0,0,1,9.88,10.09,34.22,34.22,0,0,1,3.51,16,34.85,34.85,0,0,1-3,14.53,23.4,23.4,0,0,1-7.7,9.72Zm-49.27-83.06V423.92H715c20,0,28.54,3.45,32.15,6.35,4.92,3.94,7.41,11.38,7.41,22.12,0,9.61-2.59,16.12-7.9,19.9-5.79,4.1-16.44,6.19-31.66,6.19Z"/><path d="M1033.49,393.86h-5.06V519.18c0,18.15-3.76,31.49-11.16,39.63s-19.19,12.07-35.39,12.07-28.12-4.06-35.4-12.07-11.16-21.48-11.16-39.63V393.86H902V519.18c0,27.37,6.76,48.29,20.09,62.19s33.51,21,59.83,21,46.56-7.08,59.95-21,20.09-34.82,20.09-62.19V393.86h-28.43Z"/><path d="M1286.56,503.29c-6.9-9.6-17.17-17.36-30.55-23.07l-27.56-12.14c-8.15-3.54-14.14-7.57-17.84-12a21.69,21.69,0,0,1-5.15-14.56c0-6.81,2.19-12.22,6.7-16.54s10.34-6.51,17.68-6.51a26.42,26.42,0,0,1,15.37,4.6c4.7,3.2,9.07,8.26,13,15l2.65,4.59,4.46-2.85,19-12.15,3.83-2.44-2-4.07a55.25,55.25,0,0,0-21.86-23.91c-9.24-5.36-20.24-8.08-32.7-8.08-17,0-31.31,4.95-42.42,14.73-11.3,9.93-17,22.67-17,37.86,0,12.85,3.51,24.08,10.44,33.38s17.18,16.68,30.82,22.38l23.46,10c9.16,4,16.07,8.95,20.5,14.63a30.36,30.36,0,0,1,6.39,19.4c0,9.26-3,16.54-9.08,22.23s-14.24,8.61-24.54,8.61c-8.51,0-15.35-2.51-20.9-7.68-5.7-5.32-9.89-13.42-12.46-24.08l-1.48-6.17-5.68,2.81-20.86,10.3-3.66,1.81,1,4c3.88,15.42,11.53,27.54,22.72,36s25,12.71,41.33,12.71c19.93,0,36.23-6,48.46-17.71s18.52-27.5,18.52-46.62C1297.08,524.63,1293.54,513,1286.56,503.29Z"/><path d="M52.49,663.67a33.39,33.39,0,0,0-9.4-5.86A27.44,27.44,0,0,0,33,655.91q-12,0-19.46,7.59T6,683.28a31.22,31.22,0,0,0,1.83,11A24.47,24.47,0,0,0,13.45,703a25.21,25.21,0,0,0,8.49,5.65,27,27,0,0,0,10.27,1.94,30.48,30.48,0,0,0,10.37-1.81,34.18,34.18,0,0,0,9.57-5.35V710a39.68,39.68,0,0,1-9.63,4.28,35.41,35.41,0,0,1-10.06,1.5,34.7,34.7,0,0,1-12.81-2.4,30.64,30.64,0,0,1-10.5-6.75,29.69,29.69,0,0,1-6.83-10.37A35,35,0,0,1,0,683.28a34.52,34.52,0,0,1,2.38-12.9,29.23,29.23,0,0,1,6.85-10.33,30.81,30.81,0,0,1,10.48-6.66A34.5,34.5,0,0,1,32.46,651,35.54,35.54,0,0,1,43.4,652.6a29.42,29.42,0,0,1,9.17,4.87Z"/><path d="M189.32,714.1V652.37h5.6v56.46h21.17v5.27Z"/><path d="M412.15,683.36a31.52,31.52,0,0,1-2.49,12.42,32.07,32.07,0,0,1-7.17,10.47,32.87,32.87,0,0,1-10.76,7.06,34.12,34.12,0,0,1-25.29,0,33.23,33.23,0,0,1-17.89-17.58,31.5,31.5,0,0,1-2.46-12.37,32.07,32.07,0,0,1,2.46-12.5,32.53,32.53,0,0,1,7.2-10.56,31.44,31.44,0,0,1,10.59-7,35.59,35.59,0,0,1,25.54,0,31.82,31.82,0,0,1,10.61,6.94,32.35,32.35,0,0,1,7.19,10.56A31.9,31.9,0,0,1,412.15,683.36Zm-33.07,27.36a26.93,26.93,0,0,0,10.38-2,27.34,27.34,0,0,0,8.81-5.9,27.64,27.64,0,0,0,0-38.88,26.47,26.47,0,0,0-8.75-5.9,27.16,27.16,0,0,0-10.44-2,26.55,26.55,0,0,0-10.34,2,27.54,27.54,0,0,0-8.78,5.9,28.29,28.29,0,0,0-5.9,8.92,28.27,28.27,0,0,0,0,21,27.63,27.63,0,0,0,5.9,8.92,26,26,0,0,0,19.12,7.92Z"/><path d="M552.71,714.1V657.64h-17v-5.27h39.63v5.27h-17V714.1Z"/><path d="M709.54,714.1V652.37h5.61v25h33.6v-25h5.61V714.1h-5.61V682.22h-33.6V714.1Z"/><path d="M905.56,714.1V652.37h5.61V714.1Z"/><path d="M1060.31,714.1V649.76L1104,701.4v-49h5.23v63.54l-43.68-51.73V714.1Z"/><path d="M1283.88,667.89a24.59,24.59,0,0,0-21.59-11.81q-11.46,0-18.67,7.76T1236.41,684a28.23,28.23,0,0,0,1.92,10.41,26.1,26.1,0,0,0,5.58,8.69,24.84,24.84,0,0,0,8.31,5.63,26.39,26.39,0,0,0,10.07,1.87q10.38,0,16.89-6.11t6.68-16h-21.29v-4.85H1292v.68q0,14.76-8.06,23.1t-22.17,8.35q-14,0-22.73-8.94t-8.68-23.44a36,36,0,0,1,2.19-12.58,29.93,29.93,0,0,1,6.33-10.31,29.28,29.28,0,0,1,10.09-7.13,32.23,32.23,0,0,1,12.55-2.36,35.21,35.21,0,0,1,16.1,3.4,23.79,23.79,0,0,1,10.33,10Z"/></g></g></svg>