<svg xmlns="http://www.w3.org/2000/svg" viewBox="0 0 1297.08 743.51"><defs><style>.cls-1{fill:#231f20;}.cls-2{fill:#222;}</style></defs><title>Asset 4</title><g id="Layer_2" data-name="Layer 2"><g id="Layer_1-2" data-name="Layer 1"><path class="cls-1" d="M703.65,311l17.9-7.84L1002.14,180.3l28.43-12.89-28.43-12.9L721.55,31.89,703.49,24l-55-24L593.59,24l-18.06,7.88L294.94,154.51l-28.43,12.9,28.43,12.89L575.53,303.16l17.9,7.84,55.11,24.11ZM886.37,167.41l-153,66.84,47.22-57.9,7.3-8.94-7.3-8.95-47.08-57.7Zm-237.83,76-62-76,62-76,62,76Zm-237.83-76,152.91-66.65-47.08,57.7-7.3,8.95,7.3,8.94,47.22,57.9Z"/><path class="cls-2" d="M410.71,739.91v-92.6h17.77q19.72,0,27.8,2A37.54,37.54,0,0,1,470.41,656a38.81,38.81,0,0,1,12.08,15.68,61,61,0,0,1,0,43.93,38.25,38.25,0,0,1-12.11,15.65,37.81,37.81,0,0,1-13.82,6.68q-7.74,2-24.13,2H410.71Zm11.13-10.37h7q17.07,0,23.65-1.49A25.81,25.81,0,0,0,463.45,723a29.89,29.89,0,0,0,8.67-12.24,51.19,51.19,0,0,0,0-34.28,30.13,30.13,0,0,0-8.7-12.18,26,26,0,0,0-11.1-5.21q-6.74-1.56-23.49-1.55h-7Z"/><path class="cls-2" d="M592.3,688.49q9,3.85,13.63,10.24a25.23,25.23,0,0,1,4.59,15.12q0,12.78-8.13,20.59t-21.53,7.81q-11,0-18.34-5.6t-10-15.91l10-4.93q2,8.41,6.67,12.75a16.49,16.49,0,0,0,11.67,4.33q8.28,0,13.41-4.78a16.21,16.21,0,0,0,5.12-12.43,17,17,0,0,0-3.57-10.78q-3.59-4.59-10.79-7.75l-11.26-4.8q-9.22-3.87-13.75-9.93a23.65,23.65,0,0,1-4.53-14.55,20.8,20.8,0,0,1,7.34-16.32q7.33-6.45,18.72-6.45A28.27,28.27,0,0,1,596,648.64a24,24,0,0,1,9.52,10.44l-9.1,5.82a23.82,23.82,0,0,0-7-8,15.15,15.15,0,0,0-8.73-2.63,14.05,14.05,0,0,0-10.15,3.8,13.69,13.69,0,0,0-.92,18.21q3,3.6,9.43,6.39Z"/><path class="cls-2" d="M722.86,692.09h38.21v3.1q0,21.88-12.4,34.54t-33.84,12.65A54,54,0,0,1,702.4,741a44.89,44.89,0,0,1-10.91-4,44.08,44.08,0,0,1-17.58-17.3,50.36,50.36,0,0,1-6.2-25.08,56.18,56.18,0,0,1,3.7-20.9,45.77,45.77,0,0,1,11.16-16.42,42,42,0,0,1,14.55-9,53.06,53.06,0,0,1,18.34-3q13.35,0,23.15,4.84a41.15,41.15,0,0,1,16.26,14.57l-9.24,7.4a33.89,33.89,0,0,0-12.46-12.61,34.62,34.62,0,0,0-17.33-4.21q-16.12,0-26.18,10.88T679.6,694.56q0,16.58,10.22,27.2t26,10.62q13.92,0,23.18-8.44t10.28-22H722.86Z"/><path class="cls-2" d="M808.14,739.91V643.65l67.73,74V647.31h10.5v96.2l-67.73-73.17v69.57Z"/><polygon points="2.53 594.72 2.53 396.39 109.51 396.39 109.51 422.44 30.57 422.44 30.57 472.82 109.51 472.82 109.51 499.27 30.57 499.27 30.57 568.27 109.51 568.27 109.51 594.72 2.53 594.72"/><path class="cls-1" d="M107,398.92v21H28v55.45H107v21.38H28V570.8H107v21.38H5.06V398.92H107m5.07-5.06H0V597.25H112V565.74H33.1V501.81H112V470.29H33.1V425H112V393.86Z"/><path d="M322,594.72,252,503.2v91.52H224.49V396.39h47.94c13.26,0,22.76.74,29,2.25a44.54,44.54,0,0,1,16.86,7.91,46.83,46.83,0,0,1,14.12,19.05,66.56,66.56,0,0,1,5,26c0,16.49-4.74,29.27-14.08,37.95-9.08,8.45-22.34,12.83-39.43,13l73.8,92.15ZM267,480.48c17.3,0,28.91-2.16,34.51-6.41,5.38-4.1,8.11-11.57,8.11-22.21,0-11.54-2.84-19.65-8.42-24.09-5.76-4.58-17.27-6.91-34.2-6.91H252v59.62Z"/><path class="cls-1" d="M272.43,398.92q19.41,0,28.45,2.18a41.79,41.79,0,0,1,15.91,7.46,44.16,44.16,0,0,1,13.33,18,63.79,63.79,0,0,1,4.75,25q0,23.76-13.26,36.1T282.73,500h-4.09l73.79,92.14H323.26L252.76,500h-3.3v92.14H227V398.92h45.41m-23,84.09H267q26.93,0,36-6.93t9.11-24.22q0-18.62-9.37-26.07T267,418.33H249.46V483m23-89.15H222V597.25h32.57V510.68l64.71,84.58,1.52,2H363L356.38,589,289,504.91c15.31-1,27.41-5.48,36-13.5,9.87-9.19,14.88-22.58,14.88-39.81a69.35,69.35,0,0,0-5.15-27,49.24,49.24,0,0,0-14.88-20l0,0h0a47,47,0,0,0-17.8-8.37c-6.48-1.56-16.17-2.32-29.64-2.32Zm-17.9,29.53H267c20.36,0,29,3.46,32.62,6.36,4.95,3.94,7.47,11.38,7.47,22.11,0,9.81-2.4,16.6-7.12,20.19-3.53,2.69-12.12,5.9-33,5.9H254.53V423.39Z"/><polygon points="450.28 594.72 450.28 396.39 557.25 396.39 557.25 422.44 478.31 422.44 478.31 472.82 557.25 472.82 557.25 499.27 478.31 499.27 478.31 568.27 557.25 568.27 557.25 594.72 450.28 594.72"/><path class="cls-1" d="M554.72,398.92v21H475.78v55.45h78.94v21.38H475.78V570.8h78.94v21.38H452.81V398.92H554.72m5.06-5.06h-112V597.25h112V565.74H480.84V501.81h78.94V470.29H480.84V425h78.94V393.86Z"/><path d="M672.24,594.72V396.39H715c14.28,0,25,.75,31.89,2.24a48.13,48.13,0,0,1,18.31,7.88,49,49,0,0,1,15.13,18.59,57.3,57.3,0,0,1,5.32,24.65c0,10.7-2.62,19.81-7.8,27.07a38.51,38.51,0,0,1-14.83,12.36,42.3,42.3,0,0,1,20.57,14.38c7,8.92,10.51,20.26,10.51,33.71a61.85,61.85,0,0,1-4.41,23.12,55.72,55.72,0,0,1-12.31,18.93,47.94,47.94,0,0,1-21.31,12c-8.3,2.29-21.74,3.4-41.07,3.4ZM715,569.59c12,0,20.79-.48,26-1.41a29,29,0,0,0,12-4.57,26.2,26.2,0,0,0,8.56-10.76,37.2,37.2,0,0,0,3.21-15.58A36.53,36.53,0,0,0,761,520.1,26.89,26.89,0,0,0,750.1,509a30.72,30.72,0,0,0-9.94-3.68c-3.87-.76-10.06-1.14-18.39-1.14h-22v65.43ZM715,481c15.76,0,26.9-2.24,33.12-6.66,6-4.29,9-11.47,9-22,0-11.55-2.81-19.65-8.36-24.1-5.71-4.58-17.06-6.9-33.73-6.9H699.74V481Z"/><path class="cls-1" d="M715,398.92q21.26,0,31.36,2.18a45.33,45.33,0,0,1,17.35,7.46,46.15,46.15,0,0,1,14.33,17.62,54.62,54.62,0,0,1,5.08,23.57q0,15.31-7.33,25.61T754.5,489.75q17.16,2.64,27.13,15.37t10,32.15a59.12,59.12,0,0,1-4.23,22.18,52.91,52.91,0,0,1-11.75,18.08,45.2,45.2,0,0,1-20.19,11.35q-12,3.3-40.4,3.3H674.77V398.92H715m-17.82,84.62H715q24.56,0,34.59-7.13t10-24q0-18.61-9.31-26.07T715,418.86H697.21v64.68m0,88.58H715q18.35,0,26.47-1.45t13-5a28.61,28.61,0,0,0,9.38-11.75,39.71,39.71,0,0,0,3.43-16.63,39,39,0,0,0-4.09-18.35,29.3,29.3,0,0,0-11.89-12.15,33.22,33.22,0,0,0-10.69-4q-6.07-1.19-18.87-1.18H697.21v70.49M715,393.86H669.71V597.25H715c19.56,0,33.21-1.14,41.74-3.48a50.47,50.47,0,0,0,22.4-12.63,58.43,58.43,0,0,0,12.9-19.81,64.38,64.38,0,0,0,4.59-24.06c0-14-3.71-25.9-11-35.26A44.65,44.65,0,0,0,769,488.76a40.08,40.08,0,0,0,11-10.47c5.48-7.7,8.26-17.31,8.26-28.54A59.84,59.84,0,0,0,782.65,424a51.3,51.3,0,0,0-15.89-19.52l0,0,0,0a50.73,50.73,0,0,0-19.27-8.31c-7.15-1.54-17.75-2.29-32.42-2.29Zm-12.76,30.06H715c20,0,28.54,3.45,32.15,6.35,4.92,3.94,7.41,11.38,7.41,22.12,0,9.61-2.59,16.12-7.9,19.9-5.79,4.1-16.44,6.19-31.66,6.19H702.27V423.92Zm0,82.77h19.5c8.17,0,14.19.37,17.9,1.09a28,28,0,0,1,9.06,3.34l.07,0,.06,0a24.14,24.14,0,0,1,9.88,10.09,34.22,34.22,0,0,1,3.51,16,34.85,34.85,0,0,1-3,14.53,23.4,23.4,0,0,1-7.7,9.72l0,0,0,0a26.35,26.35,0,0,1-10.91,4.12c-5.09.91-13.69,1.38-25.58,1.38H702.27V506.69Z"/><path d="M981.88,599.86c-25.6,0-45.11-6.81-58-20.25s-19.38-33.73-19.38-60.43V396.39h28.29V519.18c0,18.8,4,32.71,11.82,41.34s20.31,12.9,37.27,12.9,29.49-4.34,37.26-12.9S1031,538,1031,519.18V396.39h28.43V519.18c0,26.7-6.52,47-19.39,60.43S1007.56,599.86,981.88,599.86Z"/><path class="cls-1" d="M1056.86,398.92V519.18q0,39.21-18.68,58.68t-56.3,19.47q-37.5,0-56.17-19.47T907,519.18V398.92h23.23V519.18q0,29.31,12.47,43T981.88,576q26.65,0,39.14-13.73t12.47-43V398.92h23.37m5.06-5.06h-33.49V519.18c0,18.15-3.76,31.49-11.16,39.63s-19.19,12.07-35.39,12.07-28.12-4.06-35.4-12.07-11.16-21.48-11.16-39.63V393.86H902V519.18c0,27.37,6.76,48.29,20.09,62.19s33.51,21,59.83,21,46.56-7.08,59.95-21,20.09-34.82,20.09-62.19V393.86Z"/><path d="M1230.1,599.6c-15.71,0-29.11-4.1-39.81-12.19s-18-19.76-21.78-34.61l-.5-2,25.53-12.6.74,3.08c2.69,11.16,7.13,19.68,13.19,25.34s13.45,8.36,22.63,8.36c10.82,0,19.65-3.13,26.26-9.29s9.89-14.08,9.89-24.08a33.28,33.28,0,0,0-6.92-21c-4.69-6-11.93-11.19-21.53-15.4l-23.47-10c-13.2-5.51-23.21-12.76-29.75-21.54s-9.94-19.58-9.94-31.87c0-14.43,5.44-26.53,16.17-36s24.34-14.1,40.75-14.1c12,0,22.58,2.6,31.43,7.74a52.88,52.88,0,0,1,20.87,22.84l1,2-23.15,14.79-1.33-2.29c-4.1-7.12-8.72-12.45-13.75-15.87a29.22,29.22,0,0,0-16.79-5c-8,0-14.38,2.36-19.43,7.21s-7.48,10.84-7.48,18.37a24.13,24.13,0,0,0,5.74,16.19c4,4.7,10.26,8.95,18.75,12.65l27.6,12.14c12.93,5.52,22.86,13,29.48,22.23s10,20.4,10,33c0,18.41-6,33.48-17.74,44.79S1249.35,599.6,1230.1,599.6Z"/><path class="cls-1" d="M1231.56,394.3q17.42,0,30.16,7.4a50.16,50.16,0,0,1,19.87,21.78l-19,12.14q-6.48-11.22-14.52-16.7a31.66,31.66,0,0,0-18.22-5.48q-12.94,0-21.19,7.92t-8.25,20.2a26.73,26.73,0,0,0,6.34,17.82q6.33,7.53,19.67,13.34L1254,484.86q18.87,8.06,28.45,21.39T1292,537.8q0,26.66-17,43t-45,16.3q-22.83,0-38.28-11.68T1171,552.19l20.86-10.3q4.23,17.55,13.93,26.6t24.35,9q17.3,0,28-10t10.69-25.93a35.56,35.56,0,0,0-7.46-22.51q-7.46-9.57-22.5-16.17l-23.5-10q-19.27-8-28.71-20.72t-9.44-30.36q0-20.59,15.31-34.06t39.08-13.47m0-5.06c-17,0-31.31,4.95-42.42,14.73-11.3,9.93-17,22.67-17,37.86,0,12.85,3.51,24.08,10.44,33.38s17.18,16.68,30.82,22.38l23.43,10c9.2,4,16.11,9,20.53,14.64a30.36,30.36,0,0,1,6.39,19.4c0,9.26-3,16.54-9.08,22.23s-14.24,8.61-24.54,8.61c-8.51,0-15.35-2.51-20.9-7.69-5.7-5.31-9.89-13.41-12.46-24.07l-1.48-6.17-5.68,2.81-20.86,10.3-3.66,1.81,1,4c3.88,15.42,11.53,27.54,22.72,36s25,12.71,41.33,12.71c19.93,0,36.23-6,48.46-17.71s18.52-27.5,18.52-46.62c0-13.17-3.54-24.78-10.52-34.51s-17.17-17.36-30.55-23.07l-27.56-12.14c-8.15-3.54-14.14-7.57-17.84-12a21.69,21.69,0,0,1-5.15-14.56c0-6.81,2.19-12.22,6.7-16.54s10.34-6.51,17.68-6.51a26.42,26.42,0,0,1,15.37,4.6c4.7,3.2,9.07,8.26,13,15l2.65,4.59,4.46-2.85,19-12.15,3.83-2.44-2-4.07a55.25,55.25,0,0,0-21.86-23.91c-9.24-5.36-20.24-8.08-32.7-8.08Z"/></g></g></svg>